<svg width="50" height="50" viewBox="0 0 50 50" fill="none" xmlns="http://www.w3.org/2000/svg">
<path d="M35.7423 18.3594C37.1854 17.465 38.2978 16.125 38.9113 14.5419C39.5249 12.9589 39.606 11.2191 39.1425 9.5859C38.679 7.95265 37.6961 6.51482 36.3426 5.49004C34.989 4.46525 33.3384 3.90927 31.6407 3.90625H18.3595C16.6617 3.90927 15.0112 4.46525 13.6576 5.49004C12.304 6.51482 11.3211 7.95265 10.8576 9.5859C10.3941 11.2191 10.4753 12.9589 11.0888 14.5419C11.7023 16.125 12.8148 17.465 14.2579 18.3594C13.1228 19.0565 12.1853 20.0329 11.535 21.1955C10.8847 22.3581 10.5432 23.6679 10.5432 25C10.5432 26.3321 10.8847 27.6419 11.535 28.8045C12.1853 29.9671 13.1228 30.9435 14.2579 31.6406C13.0986 32.3557 12.1464 33.3615 11.4958 34.5582C10.8452 35.7548 10.5187 37.1008 10.5489 38.4626C10.579 39.8244 10.9646 41.1546 11.6675 42.3213C12.3704 43.4881 13.3661 44.4508 14.5559 45.1139C15.7456 45.7771 17.0881 46.1176 18.4501 46.1018C19.8122 46.086 21.1464 45.7144 22.3204 45.0238C23.4945 44.3332 24.4676 43.3477 25.1432 42.1649C25.8188 40.9822 26.1735 39.6434 26.172 38.2812V30.5664C26.9534 31.3481 27.8918 31.9552 28.9253 32.3474C29.9587 32.7395 31.0636 32.908 32.1669 32.8415C33.2702 32.7751 34.3469 32.4753 35.3258 31.9619C36.3047 31.4485 37.1635 30.7332 37.8455 29.8634C38.5275 28.9935 39.0171 27.9888 39.282 26.9157C39.547 25.8426 39.5812 24.7255 39.3824 23.6381C39.1836 22.5508 38.7563 21.5181 38.1288 20.6081C37.5014 19.6981 36.6879 18.9317 35.7423 18.3594V18.3594ZM37.1095 11.7188C37.1043 13.1676 36.5265 14.5556 35.502 15.5801C34.4775 16.6045 33.0895 17.1824 31.6407 17.1875H26.172V6.25H31.6407C33.0895 6.25515 34.4775 6.83297 35.502 7.85745C36.5265 8.88192 37.1043 10.2699 37.1095 11.7188ZM12.8907 11.7188C12.8958 10.2699 13.4737 8.88192 14.4981 7.85745C15.5226 6.83297 16.9106 6.25515 18.3595 6.25H23.8282V17.1875H18.3595C16.9106 17.1824 15.5226 16.6045 14.4981 15.5801C13.4737 14.5556 12.8958 13.1676 12.8907 11.7188V11.7188ZM12.8907 25C12.8958 23.5512 13.4737 22.1632 14.4981 21.1387C15.5226 20.1142 16.9106 19.5364 18.3595 19.5312H23.8282V30.4688H18.3595C16.9106 30.4636 15.5226 29.8858 14.4981 28.8613C13.4737 27.8368 12.8958 26.4488 12.8907 25V25ZM18.3595 43.75C16.9091 43.75 15.5181 43.1738 14.4925 42.1482C13.4669 41.1227 12.8907 39.7317 12.8907 38.2812C12.8907 36.8308 13.4669 35.4398 14.4925 34.4143C15.5181 33.3887 16.9091 32.8125 18.3595 32.8125H23.8282V38.2812C23.8231 39.7301 23.2452 41.1181 22.2208 42.1426C21.1963 43.167 19.8083 43.7449 18.3595 43.75V43.75ZM31.6407 30.4688C30.1903 30.4688 28.7993 29.8926 27.7737 28.867C26.7481 27.8414 26.172 26.4504 26.172 25C26.172 23.5496 26.7481 22.1586 27.7737 21.133C28.7993 20.1074 30.1903 19.5313 31.6407 19.5312C33.0911 19.5312 34.4821 20.1074 35.5077 21.133C36.5333 22.1586 37.1095 23.5496 37.1095 25C37.1095 26.4504 36.5333 27.8414 35.5077 28.867C34.4821 29.8926 33.0911 30.4688 31.6407 30.4688V30.4688Z" fill="#0CACF5"/>
</svg>
