<svg width="50" height="50" viewBox="0 0 50 50" fill="none" xmlns="http://www.w3.org/2000/svg">
<path d="M3.125 3.125V46.875H46.875V3.125H3.125ZM26.5625 37.1094C26.5625 41.3682 24.0469 43.4443 20.4053 43.4443C17.1162 43.4443 15.207 41.7412 14.2383 39.6855L17.5859 37.6592C18.2314 38.8047 18.7217 39.7734 20.1309 39.7734C21.3027 39.7734 22.2656 39.2451 22.2656 37.1895V23.4375H26.5625V37.1094ZM36.2646 43.3467C32.4473 43.3467 29.9805 41.624 28.7764 39.2451L32.1289 37.3047C33.0078 38.7441 34.1553 39.7031 36.1816 39.7031C37.8848 39.7031 38.874 38.9492 38.874 37.7744C38.874 36.3652 37.8555 35.8662 35.9756 35.04L34.9482 34.5986C31.9814 33.3369 30.0146 31.751 30.0146 28.4023C30.0146 25.3193 32.3633 23.0674 36.0342 23.0674C38.6484 23.0674 40.5264 23.8799 41.8789 26.2588L38.6719 28.3203C37.9668 27.0576 37.207 26.5625 36.0293 26.5625C34.8252 26.5625 34.0615 27.3262 34.0615 28.3203C34.0615 29.5537 34.8252 30.0527 36.5869 30.8164L37.6143 31.2568C41.1094 32.7549 43.0771 34.2842 43.0771 37.7178C43.0781 41.4189 40.1709 43.3467 36.2646 43.3467Z" fill="#0CACF5"/>
</svg>
