<svg width="50" height="50" viewBox="0 0 50 50" fill="none" xmlns="http://www.w3.org/2000/svg">
<path fill-rule="evenodd" clip-rule="evenodd" d="M13.7266 10.7266C13.3127 10.7252 12.9004 10.7778 12.5 10.8828V10.9375H12.5594C12.8461 11.3703 13.1658 11.7804 13.5156 12.1641C13.7562 12.6422 13.9656 13.1187 14.2047 13.5969L14.2641 13.5359C14.486 13.3597 14.6598 13.1302 14.769 12.8687C14.8783 12.6073 14.9196 12.3224 14.8891 12.0406C14.7582 11.8388 14.6382 11.6302 14.5297 11.4156C14.35 11.1172 13.9609 10.9672 13.7219 10.7281" fill="#0CACF5"/>
<path fill-rule="evenodd" clip-rule="evenodd" d="M43.4062 36.8016C41.4352 36.6631 39.4575 36.9487 37.6062 37.6391C37.1577 37.8187 36.4421 37.8187 36.3796 38.3859C36.6202 38.625 36.6484 39.0109 36.8593 39.3437C37.2685 40.0366 37.7945 40.6535 38.414 41.1672C39.039 41.6453 39.664 42.1219 40.328 42.5406C41.4921 43.2609 42.8093 43.6781 43.9437 44.3953C44.603 44.8141 45.2593 45.3516 45.9187 45.8016C46.2468 46.0406 46.4546 46.4266 46.8734 46.5828V46.4922C46.7503 46.1601 46.5982 45.8396 46.4187 45.5344C46.1202 45.2375 45.8202 44.9672 45.5202 44.6687C44.6438 43.5098 43.5952 42.4918 42.4109 41.65C41.453 40.9906 39.3593 40.0875 38.9734 38.9937L38.9124 38.9328C39.6133 38.8335 40.304 38.6725 40.9765 38.4516C41.9921 38.1828 42.9187 38.2437 43.964 37.9828C44.4437 37.8625 45.3109 37.5641 45.3109 37.5641V37.0953C44.7765 36.5641 44.3937 35.8531 43.8312 35.3516C42.3009 34.0157 40.67 32.7996 38.953 31.7141C38.0359 31.1219 36.853 30.7406 35.8765 30.2359C35.5234 30.0578 34.939 29.9703 34.7249 29.6734C34.2392 28.9609 33.8327 28.1975 33.5124 27.3969C32.6382 25.7138 31.8298 23.9974 31.089 22.2516C30.6525 21.0997 30.149 19.9744 29.5812 18.8812C26.8411 14.2226 22.886 10.3966 18.139 7.8125C16.9412 7.23274 15.6678 6.82456 14.3562 6.6C13.6155 6.56875 12.878 6.51094 12.139 6.48281C11.6619 6.17026 11.2081 5.82351 10.7812 5.44531C9.09054 4.375 4.74679 2.075 3.50304 5.12031C2.70617 7.04375 4.68742 8.93437 5.36711 9.91093C5.94022 10.5995 6.44519 11.342 6.87492 12.1281C7.08273 12.6312 7.1421 13.1641 7.34367 13.6906C7.77739 15.0423 8.29239 16.3666 8.88586 17.6562C9.20326 18.2936 9.56891 18.9058 9.97961 19.4875C10.2187 19.8141 10.6312 19.9562 10.7202 20.4953C10.3926 21.1996 10.1633 21.9457 10.039 22.7125C9.52249 24.3436 9.3324 26.0604 9.47959 27.765C9.62678 29.4696 10.1083 31.1285 10.8968 32.6469C11.3655 33.3859 12.4937 35.0125 14.0015 34.3906C15.3312 33.8594 15.0359 32.1734 15.4202 30.6969C15.5077 30.3391 15.4499 30.1047 15.6265 29.8687V30.1562C15.6265 30.1562 16.3812 31.8141 16.7562 32.6562C17.776 34.2016 19.0429 35.5687 20.5062 36.7031C21.085 37.2085 21.5513 37.8297 21.8749 38.5266V39.0625H22.5421C22.5282 38.8208 22.4612 38.5852 22.3459 38.3724C22.2306 38.1596 22.0698 37.9748 21.8749 37.8312C21.3278 37.2681 20.8267 36.662 20.3765 36.0187C19.1534 34.2769 18.0748 32.4379 17.1515 30.5203C16.6827 29.5828 16.2874 28.5547 15.9124 27.6187C15.7405 27.2578 15.7405 26.7125 15.4515 26.525C14.9177 27.1565 14.4546 27.8444 14.0702 28.5766C13.6037 30.0563 13.3321 31.5906 13.2624 33.1406C13.1484 33.1719 13.2046 33.1406 13.1484 33.2C12.228 32.9578 11.9109 31.9625 11.564 31.1187C10.6679 28.5165 10.5775 25.7044 11.3046 23.05C11.5046 22.4172 12.3718 20.4234 12.0249 19.8187C11.8515 19.2422 11.2749 18.9125 10.9593 18.4578C10.5564 17.8461 10.2096 17.1992 9.92336 16.525C9.23742 14.8437 8.89054 12.9687 8.14367 11.275C7.73023 10.4604 7.24883 9.68213 6.70461 8.94844C6.1026 8.21552 5.57157 7.42709 5.11867 6.59375C4.97492 6.26094 4.77336 5.71719 5.00304 5.35469C5.01854 5.25399 5.06643 5.16109 5.13945 5.09004C5.21247 5.019 5.30665 4.97367 5.40773 4.96094C5.77961 4.62969 6.84679 5.05156 7.22023 5.23281C8.22391 5.62793 9.17993 6.13477 10.0702 6.74375C10.4734 7.04687 11.4234 7.81406 11.4234 7.81406H11.7046C12.6609 8.02187 13.7359 7.87187 14.6359 8.14219C16.1512 8.64733 17.5974 9.34022 18.9405 10.2047C22.8994 12.7284 26.1178 16.2573 28.2671 20.4312C28.6265 21.1172 28.778 21.7469 29.1062 22.4625C29.7312 23.9312 30.5124 25.4312 31.1374 26.8594C31.6888 28.2723 32.4019 29.6167 33.2624 30.8656C33.7093 31.4906 35.5046 31.8219 36.3124 32.15C37.0139 32.3927 37.7024 32.6717 38.3749 32.9859C39.3921 33.6109 40.4062 34.3312 41.364 35.0172C41.8405 35.3766 43.3359 36.1234 43.4265 36.7219" fill="#0CACF5"/>
</svg>
