<svg width="50" height="50" viewBox="0 0 50 50" fill="none" xmlns="http://www.w3.org/2000/svg">
<path d="M25 46.875C24.4098 46.8752 23.8299 46.72 23.3188 46.425L17.9688 43.2578C17.1703 42.8109 17.5594 42.6531 17.8234 42.5609C18.6726 42.2986 19.4857 41.9312 20.2438 41.4672C20.3072 41.4378 20.3771 41.4251 20.4468 41.4303C20.5166 41.4355 20.5838 41.4584 20.6422 41.4969L24.7531 43.9391C24.8297 43.9796 24.915 44.0007 25.0016 44.0007C25.0882 44.0007 25.1735 43.9796 25.25 43.9391L41.2813 34.6859C41.3563 34.641 41.4183 34.5773 41.4613 34.5012C41.5043 34.425 41.5268 34.339 41.5266 34.2516V15.7422C41.5266 15.6534 41.5038 15.566 41.4603 15.4885C41.4168 15.4111 41.354 15.3462 41.2781 15.3L25.2469 6.05469C25.1713 6.01211 25.086 5.98975 24.9992 5.98975C24.9125 5.98975 24.8272 6.01211 24.7516 6.05469L8.7297 15.3031C8.65327 15.3483 8.58982 15.4125 8.54547 15.4894C8.50112 15.5663 8.47739 15.6534 8.47657 15.7422V34.2437C8.47679 34.331 8.5002 34.4166 8.54441 34.4919C8.58861 34.5671 8.65202 34.6292 8.72814 34.6719L13.125 37.2094C15.5078 38.4 16.9672 36.9969 16.9672 35.5875V17.3203C16.9672 17.196 17.0166 17.0768 17.1045 16.9889C17.1924 16.9009 17.3116 16.8516 17.436 16.8516H19.4672C19.5915 16.8516 19.7107 16.9009 19.7987 16.9889C19.8866 17.0768 19.9359 17.196 19.9359 17.3203V35.5891C19.9359 38.7687 18.2047 40.5891 15.1891 40.5891C13.8881 40.6117 12.6075 40.2638 11.4969 39.5859L7.28282 37.1687C6.77124 36.8708 6.34676 36.4439 6.05174 35.9307C5.75673 35.4174 5.60151 34.8358 5.60157 34.2437V15.7422C5.60005 15.1493 5.75462 14.5664 6.04974 14.0521C6.34485 13.5379 6.77013 13.1103 7.28282 12.8125L23.3156 3.55625C23.8321 3.2737 24.4113 3.12561 25 3.12561C25.5887 3.12561 26.1679 3.2737 26.6844 3.55625L42.7156 12.8125C43.2272 13.1098 43.6518 13.5361 43.947 14.0488C44.2423 14.5615 44.398 15.1427 44.3985 15.7344V34.2437C44.3976 34.8357 44.2418 35.4172 43.9466 35.9303C43.6514 36.4435 43.227 36.8704 42.7156 37.1687L26.6844 46.425C26.1723 46.7205 25.5913 46.8757 25 46.875V46.875Z" fill="#0CACF5"/>
<path d="M21.9595 28.0516C21.9595 27.9272 22.0089 27.808 22.0968 27.7201C22.1847 27.6322 22.3039 27.5828 22.4282 27.5828H24.5017C24.6124 27.5832 24.7195 27.6228 24.8039 27.6945C24.8883 27.7663 24.9445 27.8657 24.9626 27.975C25.2751 30.0859 26.2126 31.15 30.4517 31.15C33.8282 31.15 35.2673 30.3859 35.2673 28.5937C35.2673 27.5609 34.8595 26.7937 29.611 26.2797C25.2235 25.8453 22.511 24.8734 22.511 21.3672C22.511 18.1328 25.2376 16.2031 29.8079 16.2031C34.9438 16.2031 37.486 17.9859 37.8079 21.8109C37.8128 21.8748 37.8046 21.939 37.7837 21.9995C37.7629 22.0601 37.7299 22.1157 37.6867 22.163C37.6435 22.2103 37.591 22.2483 37.5326 22.2745C37.4742 22.3008 37.411 22.3147 37.347 22.3156H35.2595C35.1547 22.3142 35.0535 22.2777 34.972 22.212C34.8904 22.1463 34.8332 22.0551 34.8095 21.9531C34.311 19.7328 33.0907 19.0234 29.8095 19.0234C26.122 19.0234 25.6938 20.3078 25.6938 21.2703C25.6938 22.4359 26.2001 22.7766 31.1782 23.4344C36.1048 24.0859 38.4454 25.0078 38.4454 28.4703C38.4454 31.9641 35.5329 33.9641 30.4532 33.9641C23.4298 33.9734 21.9595 30.7531 21.9595 28.0516V28.0516Z" fill="#0CACF5"/>
</svg>
