<svg width="1440" height="1024" viewBox="0 0 1440 1024" fill="none" xmlns="http://www.w3.org/2000/svg">
<g clip-path="url(#clip0_49_13)">
<rect width="1440" height="1024" fill="white"/>
<g filter="url(#filter0_d_49_13)">
<path fill-rule="evenodd" clip-rule="evenodd" d="M0 981.621H120.375C239.625 981.621 480.375 981.621 720 938.126C959.625 895.747 1200.38 809.874 1319.62 767.494L1440 724V1024H1319.62C1200.38 1024 959.625 1024 720 1024C480.375 1024 239.625 1024 120.375 1024H0V981.621Z" fill="#229658"/>
<path fill-rule="evenodd" clip-rule="evenodd" d="M0 981.621H120.375C239.625 981.621 480.375 981.621 720 938.126C959.625 895.747 1200.38 809.874 1319.62 767.494L1440 724V1024H1319.62C1200.38 1024 959.625 1024 720 1024C480.375 1024 239.625 1024 120.375 1024H0V981.621Z" stroke="black"/>
</g>
<path d="M800.273 535.391C797.655 529.329 793.881 523.836 789.16 519.219C784.436 514.588 778.866 510.908 772.754 508.379C766.416 505.746 759.617 504.398 752.754 504.414C743.125 504.414 733.73 507.051 725.566 512.031C723.613 513.223 721.758 514.531 720 515.957C718.242 514.531 716.387 513.223 714.434 512.031C706.27 507.051 696.875 504.414 687.246 504.414C680.312 504.414 673.594 505.742 667.246 508.379C661.113 510.918 655.586 514.57 650.84 519.219C646.113 523.831 642.337 529.325 639.727 535.391C637.012 541.699 635.625 548.398 635.625 555.293C635.625 561.797 636.953 568.574 639.59 575.469C641.797 581.23 644.961 587.207 649.004 593.242C655.41 602.793 664.219 612.754 675.156 622.852C693.281 639.59 711.23 651.152 711.992 651.621L716.621 654.59C718.672 655.898 721.309 655.898 723.359 654.59L727.988 651.621C728.75 651.133 746.68 639.59 764.824 622.852C775.762 612.754 784.57 602.793 790.977 593.242C795.02 587.207 798.203 581.23 800.391 575.469C803.027 568.574 804.355 561.797 804.355 555.293C804.375 548.398 802.988 541.699 800.273 535.391V535.391ZM720 639.141C720 639.141 650.469 594.59 650.469 555.293C650.469 535.391 666.934 519.258 687.246 519.258C701.523 519.258 713.906 527.227 720 538.867C726.094 527.227 738.477 519.258 752.754 519.258C773.066 519.258 789.531 535.391 789.531 555.293C789.531 594.59 720 639.141 720 639.141Z" fill="#32B768"/>
<path d="M752.754 519.258C738.477 519.258 726.094 527.227 720 538.867C713.906 527.227 701.523 519.258 687.246 519.258C666.934 519.258 650.469 535.391 650.469 555.293C650.469 594.59 720 639.141 720 639.141C720 639.141 789.531 594.59 789.531 555.293C789.531 535.391 773.066 519.258 752.754 519.258Z" fill="#32B768" fill-opacity="0.5"/>
<path d="M474.752 361V436H458.297V361H474.752ZM472.799 407.777L468.941 407.875C468.941 404.164 469.397 400.746 470.309 397.621C471.22 394.496 472.522 391.778 474.215 389.467C475.908 387.156 477.942 385.365 480.318 384.096C482.695 382.826 485.331 382.191 488.229 382.191C490.833 382.191 493.209 382.566 495.357 383.314C497.538 384.063 499.41 385.268 500.973 386.928C502.568 388.588 503.788 390.753 504.635 393.422C505.514 396.091 505.953 399.346 505.953 403.188V436H489.4V403.09C489.4 400.941 489.091 399.281 488.473 398.109C487.887 396.905 487.04 396.075 485.934 395.619C484.827 395.131 483.476 394.887 481.881 394.887C479.96 394.887 478.398 395.212 477.193 395.863C475.989 396.514 475.061 397.426 474.41 398.598C473.792 399.737 473.368 401.088 473.141 402.65C472.913 404.213 472.799 405.922 472.799 407.777ZM540.67 436.977C536.373 436.977 532.532 436.309 529.146 434.975C525.761 433.607 522.896 431.736 520.553 429.359C518.242 426.983 516.467 424.249 515.23 421.156C514.026 418.064 513.424 414.792 513.424 411.342V409.486C513.424 405.613 513.961 402.032 515.035 398.744C516.109 395.424 517.704 392.527 519.82 390.053C521.936 387.579 524.589 385.658 527.779 384.291C530.969 382.891 534.68 382.191 538.912 382.191C542.656 382.191 546.008 382.794 548.971 383.998C551.933 385.202 554.439 386.928 556.49 389.174C558.574 391.42 560.152 394.138 561.227 397.328C562.333 400.518 562.887 404.099 562.887 408.07V414.76H519.723V404.457H546.822V403.188C546.855 401.43 546.546 399.932 545.895 398.695C545.276 397.458 544.365 396.514 543.16 395.863C541.956 395.212 540.491 394.887 538.766 394.887C536.975 394.887 535.494 395.277 534.322 396.059C533.183 396.84 532.288 397.914 531.637 399.281C531.018 400.616 530.579 402.162 530.318 403.92C530.058 405.678 529.928 407.533 529.928 409.486V411.342C529.928 413.295 530.188 415.069 530.709 416.664C531.262 418.259 532.044 419.626 533.053 420.766C534.094 421.872 535.331 422.735 536.764 423.354C538.229 423.972 539.889 424.281 541.744 424.281C543.99 424.281 546.204 423.858 548.385 423.012C550.566 422.165 552.438 420.766 554 418.812L561.471 427.699C560.396 429.229 558.867 430.71 556.881 432.143C554.928 433.575 552.584 434.747 549.85 435.658C547.115 436.537 544.055 436.977 540.67 436.977ZM597.018 422.719V400.941C597.018 399.444 596.806 398.158 596.383 397.084C595.96 396.01 595.292 395.18 594.381 394.594C593.469 393.975 592.249 393.666 590.719 393.666C589.482 393.666 588.424 393.878 587.545 394.301C586.666 394.724 585.999 395.359 585.543 396.205C585.087 397.051 584.859 398.126 584.859 399.428H568.404C568.404 396.986 568.941 394.724 570.016 392.641C571.122 390.525 572.685 388.686 574.703 387.123C576.754 385.561 579.195 384.356 582.027 383.51C584.892 382.631 588.082 382.191 591.598 382.191C595.797 382.191 599.54 382.891 602.828 384.291C606.148 385.691 608.769 387.79 610.689 390.59C612.61 393.357 613.57 396.84 613.57 401.039V422.67C613.57 426.12 613.766 428.741 614.156 430.531C614.547 432.289 615.1 433.835 615.816 435.17V436H599.312C598.531 434.372 597.945 432.387 597.555 430.043C597.197 427.667 597.018 425.225 597.018 422.719ZM599.02 403.725L599.117 412.514H591.842C590.312 412.514 589.01 412.725 587.936 413.148C586.894 413.572 586.048 414.158 585.396 414.906C584.778 415.622 584.322 416.436 584.029 417.348C583.769 418.259 583.639 419.219 583.639 420.229C583.639 421.205 583.867 422.084 584.322 422.865C584.811 423.614 585.462 424.2 586.275 424.623C587.089 425.046 588.001 425.258 589.01 425.258C590.833 425.258 592.379 424.916 593.648 424.232C594.951 423.516 595.943 422.654 596.627 421.645C597.311 420.635 597.652 419.691 597.652 418.812L601.266 425.551C600.615 426.853 599.866 428.171 599.02 429.506C598.206 430.84 597.18 432.077 595.943 433.217C594.739 434.324 593.258 435.235 591.5 435.951C589.742 436.635 587.61 436.977 585.104 436.977C581.848 436.977 578.854 436.309 576.119 434.975C573.417 433.64 571.253 431.785 569.625 429.408C567.997 426.999 567.184 424.232 567.184 421.107C567.184 418.373 567.672 415.932 568.648 413.783C569.658 411.635 571.171 409.812 573.189 408.314C575.208 406.817 577.779 405.678 580.904 404.896C584.029 404.115 587.708 403.725 591.939 403.725H599.02ZM640.084 361V436H623.58V361H640.084ZM678.072 383.168V394.594H646.236V383.168H678.072ZM652.926 370.033H669.381V418.764C669.381 420.163 669.544 421.254 669.869 422.035C670.195 422.784 670.748 423.321 671.529 423.646C672.343 423.939 673.417 424.086 674.752 424.086C675.696 424.086 676.477 424.07 677.096 424.037C677.714 423.972 678.3 423.891 678.854 423.793V435.561C677.454 436.016 675.989 436.358 674.459 436.586C672.929 436.846 671.301 436.977 669.576 436.977C666.061 436.977 663.049 436.423 660.543 435.316C658.069 434.21 656.181 432.468 654.879 430.092C653.577 427.715 652.926 424.623 652.926 420.814V370.033ZM700.729 361V436H684.273V361H700.729ZM698.775 407.777L694.918 407.875C694.918 404.164 695.374 400.746 696.285 397.621C697.197 394.496 698.499 391.778 700.191 389.467C701.884 387.156 703.919 385.365 706.295 384.096C708.671 382.826 711.308 382.191 714.205 382.191C716.809 382.191 719.186 382.566 721.334 383.314C723.515 384.063 725.387 385.268 726.949 386.928C728.544 388.588 729.765 390.753 730.611 393.422C731.49 396.091 731.93 399.346 731.93 403.188V436H715.377V403.09C715.377 400.941 715.068 399.281 714.449 398.109C713.863 396.905 713.017 396.075 711.91 395.619C710.803 395.131 709.452 394.887 707.857 394.887C705.937 394.887 704.374 395.212 703.17 395.863C701.965 396.514 701.038 397.426 700.387 398.598C699.768 399.737 699.345 401.088 699.117 402.65C698.889 404.213 698.775 405.922 698.775 407.777ZM793.648 421.156C793.648 420.245 793.339 419.464 792.721 418.812C792.135 418.129 791.093 417.51 789.596 416.957C788.098 416.371 785.999 415.785 783.297 415.199C780.725 414.646 778.3 413.913 776.021 413.002C773.775 412.09 771.806 410.984 770.113 409.682C768.421 408.38 767.086 406.833 766.109 405.043C765.165 403.253 764.693 401.202 764.693 398.891C764.693 396.645 765.165 394.529 766.109 392.543C767.086 390.525 768.502 388.751 770.357 387.221C772.245 385.658 774.54 384.438 777.242 383.559C779.944 382.647 783.02 382.191 786.471 382.191C791.223 382.191 795.325 382.924 798.775 384.389C802.226 385.821 804.879 387.839 806.734 390.443C808.622 393.015 809.566 395.993 809.566 399.379H793.111C793.111 398.044 792.883 396.905 792.428 395.961C792.005 395.017 791.305 394.301 790.328 393.812C789.352 393.292 788.049 393.031 786.422 393.031C785.283 393.031 784.241 393.243 783.297 393.666C782.385 394.089 781.653 394.675 781.1 395.424C780.546 396.173 780.27 397.051 780.27 398.061C780.27 398.777 780.432 399.428 780.758 400.014C781.116 400.567 781.653 401.088 782.369 401.576C783.085 402.032 783.997 402.455 785.104 402.846C786.21 403.204 787.545 403.529 789.107 403.822C792.656 404.473 795.976 405.401 799.068 406.605C802.161 407.81 804.667 409.519 806.588 411.732C808.541 413.946 809.518 416.924 809.518 420.668C809.518 423.012 808.98 425.176 807.906 427.162C806.832 429.115 805.286 430.84 803.268 432.338C801.249 433.803 798.824 434.942 795.992 435.756C793.16 436.57 789.97 436.977 786.422 436.977C781.376 436.977 777.112 436.081 773.629 434.291C770.146 432.468 767.509 430.189 765.719 427.455C763.961 424.688 763.082 421.889 763.082 419.057H778.414C778.479 420.684 778.87 422.019 779.586 423.061C780.335 424.102 781.327 424.867 782.564 425.355C783.801 425.844 785.234 426.088 786.861 426.088C788.359 426.088 789.596 425.876 790.572 425.453C791.581 425.03 792.346 424.46 792.867 423.744C793.388 422.995 793.648 422.133 793.648 421.156ZM845.064 383.168V394.594H813.229V383.168H845.064ZM819.918 370.033H836.373V418.764C836.373 420.163 836.536 421.254 836.861 422.035C837.187 422.784 837.74 423.321 838.521 423.646C839.335 423.939 840.41 424.086 841.744 424.086C842.688 424.086 843.469 424.07 844.088 424.037C844.706 423.972 845.292 423.891 845.846 423.793V435.561C844.446 436.016 842.981 436.358 841.451 436.586C839.921 436.846 838.294 436.977 836.568 436.977C833.053 436.977 830.042 436.423 827.535 435.316C825.061 434.21 823.173 432.468 821.871 430.092C820.569 427.715 819.918 424.623 819.918 420.814V370.033ZM879.049 422.719V400.941C879.049 399.444 878.837 398.158 878.414 397.084C877.991 396.01 877.324 395.18 876.412 394.594C875.501 393.975 874.28 393.666 872.75 393.666C871.513 393.666 870.455 393.878 869.576 394.301C868.697 394.724 868.03 395.359 867.574 396.205C867.118 397.051 866.891 398.126 866.891 399.428H850.436C850.436 396.986 850.973 394.724 852.047 392.641C853.154 390.525 854.716 388.686 856.734 387.123C858.785 385.561 861.227 384.356 864.059 383.51C866.923 382.631 870.113 382.191 873.629 382.191C877.828 382.191 881.572 382.891 884.859 384.291C888.18 385.691 890.8 387.79 892.721 390.59C894.641 393.357 895.602 396.84 895.602 401.039V422.67C895.602 426.12 895.797 428.741 896.188 430.531C896.578 432.289 897.132 433.835 897.848 435.17V436H881.344C880.562 434.372 879.977 432.387 879.586 430.043C879.228 427.667 879.049 425.225 879.049 422.719ZM881.051 403.725L881.148 412.514H873.873C872.343 412.514 871.041 412.725 869.967 413.148C868.925 413.572 868.079 414.158 867.428 414.906C866.809 415.622 866.354 416.436 866.061 417.348C865.8 418.259 865.67 419.219 865.67 420.229C865.67 421.205 865.898 422.084 866.354 422.865C866.842 423.614 867.493 424.2 868.307 424.623C869.12 425.046 870.032 425.258 871.041 425.258C872.864 425.258 874.41 424.916 875.68 424.232C876.982 423.516 877.975 422.654 878.658 421.645C879.342 420.635 879.684 419.691 879.684 418.812L883.297 425.551C882.646 426.853 881.897 428.171 881.051 429.506C880.237 430.84 879.212 432.077 877.975 433.217C876.77 434.324 875.289 435.235 873.531 435.951C871.773 436.635 869.641 436.977 867.135 436.977C863.88 436.977 860.885 436.309 858.15 434.975C855.449 433.64 853.284 431.785 851.656 429.408C850.029 426.999 849.215 424.232 849.215 421.107C849.215 418.373 849.703 415.932 850.68 413.783C851.689 411.635 853.202 409.812 855.221 408.314C857.239 406.817 859.811 405.678 862.936 404.896C866.061 404.115 869.739 403.725 873.971 403.725H881.051ZM932.564 383.168V394.594H900.729V383.168H932.564ZM907.418 370.033H923.873V418.764C923.873 420.163 924.036 421.254 924.361 422.035C924.687 422.784 925.24 423.321 926.021 423.646C926.835 423.939 927.91 424.086 929.244 424.086C930.188 424.086 930.969 424.07 931.588 424.037C932.206 423.972 932.792 423.891 933.346 423.793V435.561C931.946 436.016 930.481 436.358 928.951 436.586C927.421 436.846 925.794 436.977 924.068 436.977C920.553 436.977 917.542 436.423 915.035 435.316C912.561 434.21 910.673 432.468 909.371 430.092C908.069 427.715 907.418 424.623 907.418 420.814V370.033ZM966.793 421.156C966.793 420.245 966.484 419.464 965.865 418.812C965.279 418.129 964.238 417.51 962.74 416.957C961.243 416.371 959.143 415.785 956.441 415.199C953.87 414.646 951.445 413.913 949.166 413.002C946.92 412.09 944.951 410.984 943.258 409.682C941.565 408.38 940.23 406.833 939.254 405.043C938.31 403.253 937.838 401.202 937.838 398.891C937.838 396.645 938.31 394.529 939.254 392.543C940.23 390.525 941.646 388.751 943.502 387.221C945.39 385.658 947.685 384.438 950.387 383.559C953.089 382.647 956.165 382.191 959.615 382.191C964.368 382.191 968.469 382.924 971.92 384.389C975.37 385.821 978.023 387.839 979.879 390.443C981.767 393.015 982.711 395.993 982.711 399.379H966.256C966.256 398.044 966.028 396.905 965.572 395.961C965.149 395.017 964.449 394.301 963.473 393.812C962.496 393.292 961.194 393.031 959.566 393.031C958.427 393.031 957.385 393.243 956.441 393.666C955.53 394.089 954.798 394.675 954.244 395.424C953.691 396.173 953.414 397.051 953.414 398.061C953.414 398.777 953.577 399.428 953.902 400.014C954.26 400.567 954.798 401.088 955.514 401.576C956.23 402.032 957.141 402.455 958.248 402.846C959.355 403.204 960.689 403.529 962.252 403.822C965.8 404.473 969.12 405.401 972.213 406.605C975.305 407.81 977.812 409.519 979.732 411.732C981.686 413.946 982.662 416.924 982.662 420.668C982.662 423.012 982.125 425.176 981.051 427.162C979.977 429.115 978.43 430.84 976.412 432.338C974.394 433.803 971.969 434.942 969.137 435.756C966.305 436.57 963.115 436.977 959.566 436.977C954.521 436.977 950.257 436.081 946.773 434.291C943.29 432.468 940.654 430.189 938.863 427.455C937.105 424.688 936.227 421.889 936.227 419.057H951.559C951.624 420.684 952.014 422.019 952.73 423.061C953.479 424.102 954.472 424.867 955.709 425.355C956.946 425.844 958.378 426.088 960.006 426.088C961.503 426.088 962.74 425.876 963.717 425.453C964.726 425.03 965.491 424.46 966.012 423.744C966.533 422.995 966.793 422.133 966.793 421.156Z" fill="#32B768"/>
</g>
<defs>
<filter id="filter0_d_49_13" x="-50" y="684" width="1540" height="400" filterUnits="userSpaceOnUse" color-interpolation-filters="sRGB">
<feFlood flood-opacity="0" result="BackgroundImageFix"/>
<feColorMatrix in="SourceAlpha" type="matrix" values="0 0 0 0 0 0 0 0 0 0 0 0 0 0 0 0 0 0 127 0" result="hardAlpha"/>
<feOffset dy="10"/>
<feGaussianBlur stdDeviation="25"/>
<feComposite in2="hardAlpha" operator="out"/>
<feColorMatrix type="matrix" values="0 0 0 0 0.133333 0 0 0 0 0.588235 0 0 0 0 0.345098 0 0 0 0.25 0"/>
<feBlend mode="normal" in2="BackgroundImageFix" result="effect1_dropShadow_49_13"/>
<feBlend mode="normal" in="SourceGraphic" in2="effect1_dropShadow_49_13" result="shape"/>
</filter>
<clipPath id="clip0_49_13">
<rect width="1440" height="1024" fill="white"/>
</clipPath>
</defs>
</svg>
